<svg width="114" height="114" viewBox="0 0 114 114" fill="none" xmlns="http://www.w3.org/2000/svg">
<path d="M38.5295 33.6922L40.7006 31.5211C42.5007 29.7209 45.4218 29.7209 47.222 31.5211L50.4806 34.7797L43.9613 41.2991L41.7881 39.126L46.1344 34.7797L45.0488 33.6942C44.4488 33.0942 43.4737 33.0942 42.8737 33.6942L40.7026 35.8653C38.9025 37.6654 38.9025 40.5865 40.7026 42.3867L54.8268 56.5108L52.6537 58.684L38.5295 44.5598C35.5292 41.5595 35.5292 36.6924 38.5295 33.6922ZM36.3564 27.177C40.5568 22.9766 47.3678 22.9745 51.5682 27.1749L56.9999 32.6066L62.4317 27.1749C66.6321 22.9745 73.443 22.9766 77.6434 27.177L80.9021 30.4356L78.731 32.6066L75.4724 29.348C72.4721 26.3477 67.6051 26.3477 64.6048 29.348L52.6537 41.2991L50.4806 39.126L54.8268 34.7797L49.3951 29.348C46.3948 26.3477 41.5277 26.3477 38.5274 29.348L35.2688 32.6066L33.0978 30.4356L36.3564 27.177ZM63.5193 47.8184L56.9999 54.3377L46.1344 43.4722L48.3075 41.2991L56.9999 49.9915L61.3461 45.6453L63.5193 47.8184ZM66.7779 31.5211C68.5781 29.7209 71.4991 29.7209 73.2993 31.5211L75.4703 33.6922C78.4706 36.6924 78.4706 41.5595 75.4703 44.5598L56.9999 63.0302L54.8268 60.8571L67.8655 47.8184L61.3461 41.2991L56.9999 45.6453L54.8268 43.4722L61.3461 36.9529L70.0386 45.6453L73.2972 42.3867C75.0974 40.5865 75.0974 37.6654 73.2972 35.8653L71.1262 33.6942C70.5261 33.0942 69.551 33.0942 68.951 33.6942L67.8655 34.7797L72.2117 39.126L70.0386 41.2991L63.5193 34.7797L66.7779 31.5211Z" fill="#00792E"/>
</svg>
