<svg width="114" height="114" viewBox="0 0 114 114" fill="none" xmlns="http://www.w3.org/2000/svg">
<rect width="114" height="114" fill="#00792E"/>
<path d="M87.9086 87.1785C86.9865 87.1785 86.3009 86.9237 85.852 86.4141C85.4031 85.9045 85.1786 85.134 85.1786 84.1027V79.6437H83.85V77.9875H85.1786V76.2221L87.1988 75.8035V77.9875H89.9106V79.6437H87.1988V84.1573C87.1988 84.6062 87.2898 84.9338 87.4718 85.1401C87.6538 85.3342 87.8843 85.4313 88.1634 85.4313C88.3697 85.4313 88.5699 85.4009 88.764 85.3403C88.9581 85.2675 89.1159 85.2007 89.2372 85.1401C89.3585 85.0673 89.4374 85.0187 89.4738 84.9945L90.0744 86.5051C89.3828 86.954 88.6609 87.1785 87.9086 87.1785Z" fill="white"/>
<path d="M76.4361 77.9875V79.2797C76.7637 78.7944 77.1762 78.4304 77.6737 78.1877C78.1712 77.9329 78.7293 77.8055 79.3481 77.8055C80.5129 77.8055 81.344 78.1574 81.8415 78.8611C82.339 79.5527 82.5877 80.5416 82.5877 81.8277V86.9965H80.5675V82.0825C80.5675 81.2817 80.4401 80.6933 80.1853 80.3171C79.9305 79.941 79.4452 79.7529 78.7293 79.7529C78.062 79.7529 77.5099 79.9895 77.0731 80.4627C76.6484 80.9359 76.4361 81.5426 76.4361 82.2827V86.9965H74.4159V77.9875H76.4361Z" fill="white"/>
<path d="M71.254 76.677C70.9143 76.677 70.6231 76.5617 70.3804 76.3312C70.1499 76.0885 70.0346 75.7973 70.0346 75.4576C70.0346 75.1178 70.1499 74.8266 70.3804 74.584C70.6231 74.3413 70.9143 74.22 71.254 74.22C71.5937 74.22 71.8849 74.3413 72.1276 74.584C72.3703 74.8266 72.4916 75.1178 72.4916 75.4576C72.4916 75.7973 72.3703 76.0885 72.1276 76.3312C71.8849 76.5617 71.5937 76.677 71.254 76.677ZM72.2732 77.9874V86.9964H70.253V77.9874H72.2732Z" fill="white"/>
<path d="M65.5138 77.9875V79.7711C65.72 79.2373 66.0901 78.7762 66.624 78.3879C67.17 77.9997 67.8858 77.8055 68.7716 77.8055V80.0077C67.7402 80.0077 66.9394 80.2747 66.3692 80.8085C65.7989 81.3424 65.5138 82.1796 65.5138 83.3201V86.9965H63.4936V77.9875H65.5138Z" fill="white"/>
<path d="M54.5683 87.7792C55.0901 87.7792 55.4905 87.6821 55.7695 87.488C56.0607 87.2938 56.3216 86.9601 56.5521 86.4869L56.7341 86.1229L52.8393 77.9875H54.9141L57.0799 82.7923C57.2255 83.1078 57.3469 83.399 57.4439 83.6659C57.5531 83.9329 57.6259 84.1149 57.6623 84.2119L58.2447 82.7013L60.1921 77.9875H62.2305L58.1173 87.3969C57.7048 88.3191 57.1891 88.9258 56.5703 89.217C55.9637 89.5203 55.2963 89.672 54.5683 89.672V87.7792Z" fill="white"/>
<path d="M48.0343 87.1785C47.4034 87.1785 46.821 87.0693 46.2871 86.8509C45.7532 86.6203 45.3043 86.2927 44.9403 85.8681V86.9965H43.0111V75.0209H45.0313V79.1341C45.3832 78.7094 45.82 78.3818 46.3417 78.1513C46.8634 77.9207 47.4276 77.8055 48.0343 77.8055C48.8351 77.8055 49.551 78.0178 50.1819 78.4425C50.825 78.855 51.3224 79.4192 51.6743 80.1351C52.0262 80.8509 52.2021 81.6396 52.2021 82.5011C52.2021 83.3625 52.0262 84.1512 51.6743 84.8671C51.3224 85.5708 50.825 86.135 50.1819 86.5597C49.551 86.9722 48.8351 87.1785 48.0343 87.1785ZM47.5247 85.2311C48.2891 85.2311 48.914 84.9763 49.3993 84.4667C49.8968 83.9449 50.1455 83.2897 50.1455 82.5011C50.1455 81.7124 49.8968 81.0572 49.3993 80.5355C48.914 80.0137 48.2891 79.7529 47.5247 79.7529C46.8088 79.7529 46.2143 80.0137 45.7411 80.5355C45.2679 81.0572 45.0313 81.7124 45.0313 82.5011C45.0313 83.3019 45.2679 83.9571 45.7411 84.4667C46.2143 84.9763 46.8088 85.2311 47.5247 85.2311Z" fill="white"/>
<path d="M35.8893 87.1782C35.0885 87.1782 34.3666 86.9719 33.7235 86.5594C33.0926 86.1347 32.6012 85.5705 32.2493 84.8668C31.8974 84.1509 31.7215 83.3622 31.7215 82.5008C31.7215 81.6393 31.8974 80.8506 32.2493 80.1348C32.6012 79.4189 33.0926 78.8547 33.7235 78.4422C34.3666 78.0175 35.0885 77.8052 35.8893 77.8052C36.496 77.8052 37.0602 77.9204 37.5819 78.151C38.1036 78.3815 38.5404 78.7091 38.8923 79.1338V77.9872H40.9125V86.9962H38.8923V85.8678C38.5404 86.2924 38.1036 86.62 37.5819 86.8506C37.0602 87.069 36.496 87.1782 35.8893 87.1782ZM36.3989 85.2308C37.1148 85.2308 37.7093 84.976 38.1825 84.4664C38.6557 83.9568 38.8923 83.3016 38.8923 82.5008C38.8923 81.7121 38.6557 81.0569 38.1825 80.5352C37.7093 80.0134 37.1148 79.7526 36.3989 79.7526C35.6345 79.7526 35.0036 80.0134 34.5061 80.5352C34.0208 81.0569 33.7781 81.7121 33.7781 82.5008C33.7781 83.2894 34.0208 83.9446 34.5061 84.4664C35.0036 84.976 35.6345 85.2308 36.3989 85.2308Z" fill="white"/>
<path d="M26.1112 75.2029V85.1765H30.5728V86.9965H24V75.2029H26.1112Z" fill="white"/>
<path d="M38.5296 33.6922L40.7006 31.5211C42.5008 29.7209 45.4219 29.7209 47.2221 31.5211L50.4807 34.7797L43.9613 41.2991L41.7882 39.126L46.1345 34.7797L45.0489 33.6942C44.4489 33.0942 43.4738 33.0942 42.8738 33.6942L40.7027 35.8653C38.9026 37.6654 38.9025 40.5865 40.7027 42.3867L54.8269 56.5108L52.6538 58.684L38.5296 44.5598C35.5293 41.5595 35.5293 36.6924 38.5296 33.6922ZM36.3565 27.177C40.5569 22.9766 47.3679 22.9745 51.5683 27.1749L57 32.6066L62.4318 27.1749C66.6322 22.9745 73.4431 22.9766 77.6435 27.177L80.9022 30.4356L78.7311 32.6066L75.4725 29.348C72.4722 26.3477 67.6051 26.3477 64.6049 29.348L52.6538 41.2991L50.4807 39.126L54.8269 34.7797L49.3952 29.348C46.3949 26.3477 41.5278 26.3477 38.5275 29.348L35.2689 32.6066L33.0979 30.4356L36.3565 27.177ZM63.5193 47.8184L57 54.3377L46.1345 43.4722L48.3076 41.2991L57 49.9915L61.3462 45.6453L63.5193 47.8184ZM66.778 31.5211C68.5781 29.7209 71.4992 29.7209 73.2994 31.5211L75.4704 33.6922C78.4707 36.6924 78.4707 41.5595 75.4704 44.5598L57 63.0302L54.8269 60.8571L67.8656 47.8184L61.3462 41.2991L57 45.6453L54.8269 43.4722L61.3462 36.9529L70.0387 45.6453L73.2973 42.3867C75.0975 40.5865 75.0975 37.6654 73.2973 35.8653L71.1263 33.6942C70.5262 33.0942 69.5511 33.0942 68.9511 33.6942L67.8656 34.7797L72.2118 39.126L70.0387 41.2991L63.5193 34.7797L66.778 31.5211Z" fill="white"/>
</svg>
