<svg width="114" height="70" viewBox="0 0 114 70" fill="none" xmlns="http://www.w3.org/2000/svg">
<path d="M38.5296 33.6922L40.7006 31.5211C42.5008 29.7209 45.4219 29.7209 47.2221 31.5211L50.4807 34.7797L43.9613 41.2991L41.7882 39.126L46.1345 34.7797L45.0489 33.6942C44.4489 33.0942 43.4738 33.0942 42.8738 33.6942L40.7027 35.8653C38.9026 37.6654 38.9025 40.5865 40.7027 42.3867L54.8269 56.5108L52.6538 58.684L38.5296 44.5598C35.5293 41.5595 35.5293 36.6924 38.5296 33.6922ZM36.3565 27.177C40.5569 22.9766 47.3679 22.9745 51.5683 27.1749L57 32.6066L62.4318 27.1749C66.6322 22.9745 73.4431 22.9766 77.6435 27.177L80.9022 30.4356L78.7311 32.6066L75.4725 29.348C72.4722 26.3477 67.6051 26.3477 64.6049 29.348L52.6538 41.2991L50.4807 39.126L54.8269 34.7797L49.3952 29.348C46.3949 26.3477 41.5278 26.3477 38.5275 29.348L35.2689 32.6066L33.0979 30.4356L36.3565 27.177ZM63.5193 47.8184L57 54.3377L46.1345 43.4722L48.3076 41.2991L57 49.9915L61.3462 45.6453L63.5193 47.8184ZM66.778 31.5211C68.5781 29.7209 71.4992 29.7209 73.2994 31.5211L75.4704 33.6922C78.4707 36.6924 78.4707 41.5595 75.4704 44.5598L57 63.0302L54.8269 60.8571L67.8656 47.8184L61.3462 41.2991L57 45.6453L54.8269 43.4722L61.3462 36.9529L70.0387 45.6453L73.2973 42.3867C75.0975 40.5865 75.0975 37.6654 73.2973 35.8653L71.1263 33.6942C70.5262 33.0942 69.5511 33.0942 68.9511 33.6942L67.8656 34.7797L72.2118 39.126L70.0387 41.2991L63.5193 34.7797L66.778 31.5211Z" fill="white"/>
</svg>
